solid CATIA STL
  facet normal  0.000000e+000 -7.071068e-001  7.071068e-001
    outer loop
      vertex -1.000000e+001  1.000000e+001  1.000000e+001
      vertex -1.000000e+001  0.000000e+000  0.000000e+000
      vertex  1.000000e+001  1.000000e+001  1.000000e+001
    endloop
  endfacet
  facet normal  0.000000e+000 -7.071068e-001  7.071068e-001
    outer loop
      vertex  1.000000e+001  1.000000e+001  1.000000e+001
      vertex -1.000000e+001  0.000000e+000  0.000000e+000
      vertex  1.000000e+001  0.000000e+000  0.000000e+000
    endloop
  endfacet
endsolid CATIA STL
